<svg width="48" height="48" viewBox="0 0 48 48" fill="none" xmlns="http://www.w3.org/2000/svg">
<path d="M0 8C0 3.58172 3.58172 0 8 0H40C44.4183 0 48 3.58172 48 8V40C48 44.4183 44.4183 48 40 48H8C3.58172 48 0 44.4183 0 40V8Z" fill="#3B5AF7"/>
<path d="M23.9838 36.448C22.4051 36.448 20.8584 36.1493 19.3438 35.552C17.8291 34.9547 16.4957 34.1013 15.3438 32.992L18.0638 29.728C18.8958 30.5173 19.8451 31.1573 20.9117 31.648C21.9998 32.1173 23.0558 32.352 24.0798 32.352C25.3171 32.352 26.2558 32.1067 26.8958 31.616C27.5358 31.1253 27.8558 30.464 27.8558 29.632C27.8558 29.0347 27.6958 28.5653 27.3758 28.224C27.0771 27.8613 26.6611 27.5413 26.1278 27.264C25.5944 26.9867 24.9757 26.7093 24.2718 26.432L21.1357 25.056C20.3464 24.736 19.5784 24.3093 18.8318 23.776C18.1064 23.2213 17.4984 22.528 17.0078 21.696C16.5384 20.864 16.3038 19.872 16.3038 18.72C16.3038 17.4187 16.6558 16.256 17.3598 15.232C18.0638 14.208 19.0344 13.3973 20.2718 12.8C21.5091 12.1813 22.9171 11.872 24.4958 11.872C25.9038 11.872 27.2584 12.1387 28.5598 12.672C29.8611 13.2053 30.9918 13.9627 31.9518 14.944L29.5518 17.888C28.8051 17.2693 28.0264 16.7893 27.2158 16.448C26.4051 16.1067 25.4984 15.936 24.4958 15.936C23.4718 15.936 22.6504 16.16 22.0318 16.608C21.4344 17.0347 21.1357 17.6427 21.1357 18.432C21.1357 18.9867 21.3064 19.4453 21.6477 19.808C21.9891 20.1707 22.4371 20.4907 22.9918 20.768C23.5464 21.024 24.1544 21.2907 24.8158 21.568L27.9198 22.816C28.8798 23.2 29.7118 23.68 30.4158 24.256C31.1411 24.832 31.6958 25.5253 32.0798 26.336C32.4851 27.1467 32.6878 28.128 32.6878 29.28C32.6878 30.56 32.3358 31.744 31.6318 32.832C30.9491 33.92 29.9571 34.7947 28.6558 35.456C27.3758 36.1173 25.8184 36.448 23.9838 36.448Z" fill="white"/>
</svg>
